<svg width="165" height="29" viewBox="0 0 165 29" fill="none" xmlns="http://www.w3.org/2000/svg">
<path d="M0.538086 17.1392L0.520996 16.8486C0.520996 16.1423 0.691895 15.5783 1.03369 15.1567L16.8076 9.20947C17.6051 8.87907 18.3685 8.59424 19.0977 8.35498H19.166C19.3369 8.35498 19.4224 8.74805 19.4224 9.53418V9.73926C19.4224 11.79 19.3483 12.9465 19.2002 13.2085C16.1696 14.3592 12.0794 15.9714 6.92969 18.0449C8.54753 18.6715 10.9629 19.6001 14.1758 20.8306C17.4001 22.0496 19.0635 22.6991 19.166 22.7788C19.3825 22.9611 19.4907 23.5535 19.4907 24.5562C19.4907 25.5474 19.4451 26.4189 19.354 27.1709V27.2051C19.354 27.5013 19.2913 27.6494 19.166 27.6494C19.1546 27.6494 19.092 27.638 18.978 27.6152L2.60596 21.1724C2.57178 21.161 2.50911 21.1382 2.41797 21.104C2.32682 21.0584 2.2015 21.0129 2.04199 20.9673C1.71159 20.8647 1.37549 20.6995 1.03369 20.4717C0.691895 20.2324 0.520996 19.8337 0.520996 19.2754V18.2842L0.538086 17.9253V17.1392ZM19.0806 8.35498V7.99609L19.2002 7.979L19.2515 8.30371L19.0806 8.35498ZM47.4668 21.1553L47.4497 23.189C47.4497 24.0435 47.4611 25.3936 47.4839 27.2393C47.3244 27.4557 46.0597 27.564 43.6899 27.564C41.3201 27.564 39.201 27.5298 37.3325 27.4614C37.3097 27.4386 37.2015 27.2962 37.0078 27.0342V24.2998L37.042 19.0532C37.042 18.5405 36.985 18.2386 36.8711 18.1475C36.7572 18.0563 36.4097 18.0107 35.8286 18.0107H35.5894C34.507 18.0107 33.6525 18.062 33.0259 18.1646V20.5571L32.9917 27.1709C32.8208 27.3532 31.391 27.4443 28.7021 27.4443H27.8818C25.5576 27.4443 23.8657 27.4102 22.8062 27.3418C22.5897 27.2734 22.4814 26.4645 22.4814 24.915L22.584 21.1382L22.7549 5.82568V5.00537C22.7663 4.83447 22.772 4.24202 22.772 3.22803C22.772 2.20264 22.8346 1.55322 22.96 1.27979H23.0454C23.7974 1.30257 24.3499 1.31396 24.7031 1.31396H26.6172L28.6851 1.27979H29.3345C31.2713 1.27979 32.3993 1.50195 32.7183 1.94629C32.8778 2.17415 32.9575 2.52165 32.9575 2.98877L32.9062 5.125V5.92822L32.8037 9.31201C32.8037 9.56266 32.8208 9.89307 32.855 10.3032H33.9146L34.3418 10.3203H35.709C36.2103 10.3203 36.723 10.2804 37.2471 10.2007V6.15039L37.2642 4.88574V3.70654L37.2471 3.43311V2.56152C37.2471 1.88932 37.2756 1.47917 37.3325 1.33105C37.4009 1.18294 37.5661 1.10889 37.8281 1.10889L38.1699 1.12598H39.2808L42.9722 1.02344C45.9116 1.02344 47.3813 1.257 47.3813 1.72412V2.9375L47.3984 3.34766L47.3813 4.23633V6.88525L47.4668 17.7886C47.4668 17.9709 47.4554 18.2101 47.4326 18.5063V19.3267C47.4326 19.6912 47.444 20.1698 47.4668 20.7622V21.1553ZM71.854 7.60303C71.854 7.979 71.8141 8.16699 71.7344 8.16699C71.7344 8.16699 69.6722 8.1499 65.5479 8.11572C65.5251 9.22087 65.5137 10.9469 65.5137 13.2939C65.5137 15.641 65.5194 17.2702 65.5308 18.1816L65.5991 27.2393C65.5422 27.3988 65.4282 27.4842 65.2573 27.4956L61.6514 27.4443L61.6343 27.4614L60.5063 27.4443H57.3789C56.5358 27.4443 55.9035 27.45 55.4819 27.4614L55.1914 27.2051C55.18 27.1937 55.106 27.1025 54.9692 26.9316C54.9692 25.929 55.0091 23.7017 55.0889 20.2495L55.2769 11.1577L55.2427 10.7305C55.1629 9.60254 55.0832 8.93604 55.0034 8.73096C54.9351 8.51449 54.7926 8.40055 54.5762 8.38916C54.3597 8.36637 54.2002 8.35498 54.0977 8.35498L53.4141 8.38916L49.1758 8.3208C49.0277 8.02458 48.9536 7.35807 48.9536 6.32129L48.9878 4.81738V4.35596C48.9764 2.53304 48.9593 1.55892 48.9365 1.43359C48.9593 1.43359 49.0049 1.44499 49.0732 1.46777L70.8286 1.27979C71.2729 1.27979 71.5521 1.31396 71.666 1.38232C71.7799 1.43929 71.8369 1.55322 71.8369 1.72412V6.23584L71.854 7.60303ZM82.313 12.3027C82.1763 15.527 82.1079 18.8424 82.1079 22.249V27.3418H80.8604L80.4331 27.3247L74.3662 27.376C73.9788 27.376 73.7738 27.3817 73.751 27.3931C73.751 27.3817 73.7738 27.2848 73.8193 27.1025V27L73.8364 26.9316C73.7795 26.1113 73.751 25.1144 73.751 23.9409L73.8193 4.85156L73.8022 3.96289V3.1084L73.7681 1.50195C73.7681 1.38802 73.8307 1.26839 73.9561 1.14307H76.2974L77.6646 1.12598C80.8774 1.12598 83.1732 1.17155 84.5518 1.2627C85.9417 1.35384 86.9386 1.39941 87.5425 1.39941C87.8729 3.35905 88.3628 5.95671 89.0122 9.19238L90.2256 15.3105H90.8237L93.0112 4.13379C93.0454 3.96289 93.1252 3.46729 93.2505 2.64697C93.3758 1.81527 93.4727 1.35384 93.541 1.2627H93.6094L104.735 1.16016L105.401 1.17725H107.315C107.418 1.22282 107.475 1.43359 107.486 1.80957L107.657 8.26953C107.794 13.6243 107.891 17.7943 107.948 20.7793C107.948 23.0807 107.914 25.2397 107.845 27.2563C107.811 27.3931 107.583 27.4728 107.162 27.4956L106.393 27.5298C105.777 27.5526 105.322 27.564 105.025 27.564H104.137C103.032 27.5754 101.402 27.5811 99.249 27.5811C98.8503 27.2279 98.6509 25.7012 98.6509 23.001L98.6851 17.6348V16.2505C98.6851 15.0314 98.6794 14.1313 98.668 13.5503L98.0186 13.4307C97.6426 14.8092 96.9191 17.8797 95.8481 22.6421L95.6943 23.3257C95.6146 23.6789 95.4779 24.3112 95.2842 25.2227C95.1019 26.1227 94.9538 26.8063 94.8398 27.2734C94.7031 27.4329 94.0993 27.5127 93.0283 27.5127H92.8062L90.8921 27.4614L89.8496 27.4785H89.0464L87.6963 27.4956H87.2178C86.6937 27.4956 86.4032 27.376 86.3462 27.1367L86.3633 27.1538L84.8081 20.3691C84.7625 20.1982 84.66 19.828 84.5005 19.2583C84.341 18.6772 84.2498 18.193 84.2271 17.8057L82.9453 12.2686L82.313 12.3027ZM130.729 20.4375C130.649 20.7565 130.609 21.0983 130.609 21.4629V21.856C130.609 22.4598 130.649 22.8927 130.729 23.1548C130.729 24.8752 130.723 26.2025 130.711 27.1367C130.643 27.4329 125.021 27.5811 113.844 27.5811C113.331 27.5811 112.482 27.5697 111.297 27.5469C111.115 27.2051 111.024 26.6411 111.024 25.855L111.058 24.7441V20.8647L111.075 17.6177V14.4048L111.092 9.22656C111.092 8.26953 111.081 7.36947 111.058 6.52637V6.33838L111.007 3.87744C111.007 2.4305 111.126 1.49056 111.366 1.05762C111.594 1.06901 111.907 1.07471 112.306 1.07471H113.126L115.997 1.04053C119.267 1.04053 121.067 1.24561 121.397 1.65576L121.261 7.62012L121.209 12.6274L121.192 12.8325L121.124 19.9419L121.808 20.335C123.87 20.2096 125.864 20.147 127.789 20.147C129.726 20.147 130.706 20.2438 130.729 20.4375ZM144.229 0.254395L144.4 0.237305C144.879 0.237305 145.118 0.299967 145.118 0.425293C144.947 1.18864 144.748 1.88932 144.52 2.52734L144.024 3.84326C143.01 6.78271 141.985 9.82471 140.948 12.9692L140.572 14.0459C140.436 14.4333 139.872 16.091 138.88 19.019C137.901 21.9471 137.126 24.146 136.556 25.6157L136.249 26.4189H136.283C135.952 27.3304 135.525 27.8716 135.001 28.0425C134.728 28.1336 134.374 28.1849 133.941 28.1963H133.207C132.774 28.2533 132.158 28.2817 131.361 28.2817H130.489C130.25 27.7918 130.09 27.4443 130.011 27.2393C130.261 26.4189 130.421 25.9746 130.489 25.9062L131.515 23.0864C133.508 17.6063 136.157 10.5026 139.461 1.77539L140.042 0.288574C140.236 0.231608 140.692 0.203125 141.41 0.203125L143.785 0.254395H144.229ZM146.161 12.5933L146.178 12.4224V11.9097C146.178 9.91585 146.161 8.77653 146.126 8.4917C146.263 8.59424 148.673 9.52279 153.355 11.2773L155.252 11.9951C158.135 13.0775 160.579 14.0174 162.584 14.8149L164.669 15.6694C164.806 15.9657 164.874 16.7746 164.874 18.0962C164.874 19.4064 164.863 20.0729 164.84 20.0957L164.652 20.2666L164.601 20.3179H164.652C159.343 22.4256 155.406 24.0378 152.843 25.1543L150.501 26.1284C148.61 26.9032 147.26 27.4329 146.451 27.7178L145.921 27.1367C145.921 25.667 145.978 24.2542 146.092 22.8984C146.263 22.5111 148.718 21.4401 153.458 19.6855L154.005 19.4634C155.748 18.8368 157.11 18.3184 158.089 17.9082C157.212 17.555 155.56 16.8657 153.133 15.8403C150.718 14.8035 148.417 13.8978 146.229 13.123C146.183 13.0319 146.161 12.8553 146.161 12.5933ZM146.178 8.4917L146.144 8.50879C146.121 8.50879 146.098 8.4917 146.075 8.45752L146.178 8.4917Z" fill="#ABD1C6"/>
</svg>
